<mxfile host="Electron" agent="Mozilla/5.0 (Windows NT 10.0; Win64; x64) AppleWebKit/537.36 (KHTML, like Gecko) draw.io/28.1.2 Chrome/138.0.7204.243 Electron/37.4.0 Safari/537.36" version="28.1.2">
  <diagram name="Page-1" id="jeCkftJTU6louGUSIvmd">
    <mxGraphModel dx="1426" dy="873" grid="1" gridSize="10" guides="1" tooltips="1" connect="1" arrows="1" fold="1" page="1" pageScale="1" pageWidth="850" pageHeight="1100" math="0" shadow="0">
      <root>
        <mxCell id="0" />
        <mxCell id="1" parent="0" />
        <mxCell id="2gTG49NVClo2OrhclcT4-1" value="" style="rounded=0;whiteSpace=wrap;html=1;align=left;" vertex="1" parent="1">
          <mxGeometry x="90" y="100" width="530" height="370" as="geometry" />
        </mxCell>
        <mxCell id="2gTG49NVClo2OrhclcT4-3" value="" style="rounded=0;whiteSpace=wrap;html=1;" vertex="1" parent="1">
          <mxGeometry x="110" y="210" width="190" height="250" as="geometry" />
        </mxCell>
        <mxCell id="2gTG49NVClo2OrhclcT4-4" value="&lt;b&gt;My Itineraries&lt;/b&gt;" style="rounded=1;whiteSpace=wrap;html=1;" vertex="1" parent="1">
          <mxGeometry x="130" y="300" width="140" height="30" as="geometry" />
        </mxCell>
        <mxCell id="2gTG49NVClo2OrhclcT4-5" value="About" style="rounded=1;whiteSpace=wrap;html=1;fillColor=#00331A;strokeColor=#23445d;fontColor=#FFFFFF;" vertex="1" parent="1">
          <mxGeometry x="130" y="340" width="140" height="30" as="geometry" />
        </mxCell>
        <mxCell id="2gTG49NVClo2OrhclcT4-6" value="Help" style="rounded=1;whiteSpace=wrap;html=1;" vertex="1" parent="1">
          <mxGeometry x="130" y="380" width="140" height="30" as="geometry" />
        </mxCell>
        <mxCell id="2gTG49NVClo2OrhclcT4-7" value="Profile" style="rounded=1;whiteSpace=wrap;html=1;" vertex="1" parent="1">
          <mxGeometry x="130" y="420" width="140" height="30" as="geometry" />
        </mxCell>
        <mxCell id="2gTG49NVClo2OrhclcT4-9" value="Home Page&amp;nbsp;" style="rounded=1;whiteSpace=wrap;html=1;labelBackgroundColor=default;" vertex="1" parent="1">
          <mxGeometry x="190" y="110" width="360" height="30" as="geometry" />
        </mxCell>
        <mxCell id="2gTG49NVClo2OrhclcT4-10" value="Altas Itenerary Planner (Log/Title)" style="rounded=0;whiteSpace=wrap;html=1;" vertex="1" parent="1">
          <mxGeometry x="190" y="150" width="360" height="50" as="geometry" />
        </mxCell>
        <mxCell id="2gTG49NVClo2OrhclcT4-11" value="Home&amp;nbsp;" style="rounded=1;whiteSpace=wrap;html=1;" vertex="1" parent="1">
          <mxGeometry x="130" y="220" width="140" height="30" as="geometry" />
        </mxCell>
        <mxCell id="2gTG49NVClo2OrhclcT4-12" value="&lt;b&gt;Create Itinerary&amp;nbsp;&lt;/b&gt;" style="rounded=1;whiteSpace=wrap;html=1;" vertex="1" parent="1">
          <mxGeometry x="130" y="260" width="140" height="30" as="geometry" />
        </mxCell>
        <mxCell id="2gTG49NVClo2OrhclcT4-18" value="&lt;div&gt;&lt;div&gt;&lt;br&gt;&lt;/div&gt;&lt;ul&gt;&lt;li&gt;Purpose: “Explains what the site does.”&lt;/li&gt;&lt;/ul&gt;&lt;ul&gt;&lt;li&gt;&lt;span style=&quot;background-color: transparent; color: light-dark(rgb(0, 0, 0), rgb(255, 255, 255));&quot;&gt;Group background.&lt;/span&gt;&lt;/li&gt;&lt;/ul&gt;&lt;ul&gt;&lt;li&gt;How to navigate (summary of nav options).&lt;/li&gt;&lt;/ul&gt;&lt;/div&gt;" style="rounded=0;whiteSpace=wrap;html=1;align=left;" vertex="1" parent="1">
          <mxGeometry x="320" y="210" width="280" height="250" as="geometry" />
        </mxCell>
        <mxCell id="2gTG49NVClo2OrhclcT4-19" value="About section" style="rounded=0;whiteSpace=wrap;html=1;" vertex="1" parent="1">
          <mxGeometry x="360" y="220" width="200" height="50" as="geometry" />
        </mxCell>
      </root>
    </mxGraphModel>
  </diagram>
</mxfile>
